<?xml version="1.0" encoding="utf-8"?>
<svg xmlns="http://www.w3.org/2000/svg" viewBox="0 0 500 500">
  <path d="M -178.24 -229.34 L 623.884 -229.34 L 623.884 572.788 L -178.24 572.788 Z"/>
  <path style="fill: rgb(226, 226, 226);" d="M 187.704 62.036 C 204.482 56.421 222.56 53.298 240.194 52.195 C 253.612 51.043 269.271 51.585 282.505 54.018 L 277.52 72.496 C 260.806 69.692 243.09 70.591 226.393 72.978 C 216.111 74.25 206.22 77.031 196.29 79.883 C 192.918 74.401 190.003 68.043 187.704 62.036 Z"/>
  <path style="fill: rgb(226, 226, 226);" d="M 309.099 79.137 C 311.104 72.975 312.977 66.769 314.712 60.523 C 336.033 66.224 357.884 77.077 375.616 90.17 C 372.239 94.247 369.166 98.487 366.103 102.802 L 363.836 106.209 C 345.886 93.449 330.174 85.734 309.099 79.137 Z"/>
  <path style="fill: rgb(226, 226, 226);" d="M 397.415 102.021 C 403.854 100.831 411.39 98.728 417.13 95.484 C 426.961 89.927 429.601 76.275 432.466 66.193 C 433.901 68.388 434.24 72.558 434.971 75.186 C 436.194 79.575 437.984 84.306 440.451 88.151 C 446.218 97.14 459.33 100.101 469.133 102.34 C 461.087 104.533 451.218 105.842 444.509 111.077 C 437.16 116.808 434.174 128.964 433.081 137.767 L 432.549 137.749 C 431.092 130.795 429.958 124.33 426.441 118.036 C 420.458 107.334 408.248 105.139 397.415 102.021 Z"/>
  <path style="fill: rgb(226, 226, 226);" d="M 85.435 139.806 C 104.596 113.946 127.84 90.796 156.503 75.563 C 159.799 79.058 164.107 88.599 166.559 93.08 C 140.11 107.815 121.361 126.003 103.141 149.948 L 98.617 147.304 C 94.285 144.696 89.889 142.196 85.435 139.806 Z"/>
  <path style="fill: rgb(226, 226, 226);" d="M 423.451 328.486 L 423.498 159.92 C 431.963 159.869 440.429 159.926 448.893 160.088 C 448.304 225.564 449.13 291.101 449.226 356.583 C 444.725 353.965 427.104 333.331 423.451 328.486 Z"/>
  <path style="fill: rgb(226, 226, 226);" d="M 373.217 273.069 C 374.162 262.634 373.558 251.748 373.56 241.26 C 373.568 216.493 372.908 191.608 373.42 166.855 C 382.163 166.893 390.908 167.005 399.651 167.193 L 399.898 253.669 C 399.935 260.61 401.147 299.095 399.587 303.47 C 391.281 292.958 381.505 283.638 373.217 273.069 Z"/>
  <path style="fill: rgb(226, 226, 226);" d="M 49.089 242.125 C 51.239 216.342 58.722 191.909 69.456 168.509 C 75.541 171.325 81.251 175.052 87.299 178.013 C 82.424 190.421 77.138 202.436 73.866 215.421 C 72.488 220.894 70.212 239.537 69.108 241.951 L 67.965 242.16 C 61.666 241.957 55.388 242.033 49.089 242.125 Z"/>
  <path style="fill: rgb(226, 226, 226);" d="M 0.884 430.345 C 8.807 421.059 18.028 412.604 26.531 403.832 L 88.891 340.068 L 150.792 276.889 C 181.853 244.6 212.614 211.869 244.519 180.414 C 246.181 181.125 322.334 268.137 330.129 277.086 C 336.308 272.816 342.178 268.103 348.348 263.808 C 357.429 272.861 365.617 283.039 374.012 292.729 C 382.115 302.087 390.588 311.173 398.898 320.354 L 499.551 430.606 C 470.489 431.358 441.226 430.7 412.147 430.582 L 270.527 430.425 L 98.142 430.407 C 65.769 430.442 33.238 431.226 0.884 430.345 Z M 243.822 198.639 L 202.093 241.881 C 192.758 251.511 183.23 261.008 174.176 270.907 C 183.054 281.071 191.478 291.607 200.341 301.785 C 214.471 286.572 227.821 270.49 242.227 255.563 C 251.11 264.7 259.111 274.518 267.527 284.07 C 278.364 296.369 289.497 308.41 300.271 320.766 C 307.984 329.612 315.442 339.253 323.849 347.417 C 329.787 342.611 334.852 336.768 340.918 332.149 C 349.075 340.289 356.716 349.149 364.604 357.573 C 372.551 366.057 381.154 374.5 388.537 383.45 L 409.357 405.661 C 413.072 409.628 417.093 413.518 420.511 417.741 C 437.051 417.277 453.567 418.078 470.079 417.677 C 454.851 401.478 440.129 384.649 425.195 368.169 L 370.999 308.667 C 362.789 299.516 354.908 290.057 346.612 280.991 C 340.353 285.262 334.672 290.537 328.321 294.569 C 300.476 262.313 271.48 231.049 243.822 198.639 Z M 242.187 274.818 C 237.265 279.017 233.043 284.291 228.706 289.084 C 219.236 299.556 209.953 310.451 200.107 320.554 C 192.78 312.173 185.716 303.619 178.532 295.118 C 174.206 290 169.639 285.036 165.576 279.706 L 77.11 370.975 C 61.662 386.733 45.449 401.854 30.575 418.172 C 47.785 417.611 65.081 417.904 82.296 418.045 L 133.299 366.065 C 143.344 355.875 152.949 344.325 163.743 334.981 C 170.232 342.006 176.626 349.117 182.922 356.315 C 188.148 362.403 193.14 368.893 198.946 374.443 C 210.525 362.374 222.116 350.329 232.978 337.599 L 266.979 375.783 C 281.377 392.099 295.716 408.853 311.19 424.158 C 311.285 400.496 312.072 376.732 311.461 353.078 C 304.929 345.15 297.922 337.678 291.143 329.966 L 255.9 290.038 C 252.761 286.539 245.517 277.007 242.187 274.818 Z M 150.127 367.415 C 143.343 374.327 135.437 381.411 129.678 389.21 C 129.631 393.098 128.71 416.996 129.954 418.802 L 150.693 418.747 C 150.713 412.661 151.608 369.419 150.127 367.415 Z M 182.167 375.697 L 182.099 419.093 C 188.555 419.157 195.69 419.831 202.063 418.998 C 202.513 417.975 202.479 417.252 202.432 416.144 L 202.443 387.466 C 200.528 388.834 198.637 390.281 196.663 391.56 C 191.879 386.251 187.182 380.782 182.167 375.697 Z"/>
  <path style="fill: rgb(226, 226, 226);" d="M 322.882 250.825 L 322.82 191.356 C 331.711 191.609 340.61 191.581 349.5 191.275 C 348.974 210.612 349.305 230.03 349.244 249.38 C 346.929 250.882 344.703 252.578 342.458 254.186 C 339.242 256.69 336.012 259.171 332.763 261.63 C 330.011 257.62 326.33 254.23 322.882 250.825 Z"/>
  <path d="M 174.176 270.907 C 183.23 261.008 192.758 251.511 202.093 241.881 L 243.822 198.639 C 271.48 231.049 300.476 262.313 328.321 294.569 C 334.672 290.537 340.353 285.262 346.612 280.991 C 354.908 290.057 362.789 299.516 370.999 308.667 L 425.195 368.169 C 440.129 384.649 454.851 401.478 470.079 417.677 C 453.567 418.078 437.051 417.277 420.511 417.741 C 417.093 413.518 413.072 409.628 409.357 405.661 L 388.537 383.45 C 381.154 374.5 372.551 366.057 364.604 357.573 C 356.716 349.149 349.075 340.289 340.918 332.149 C 334.852 336.768 329.787 342.611 323.849 347.417 C 315.442 339.253 307.984 329.612 300.271 320.766 C 289.497 308.41 278.364 296.369 267.527 284.07 C 259.111 274.518 251.11 264.7 242.227 255.563 C 227.821 270.49 214.471 286.572 200.341 301.785 C 191.478 291.607 183.054 281.071 174.176 270.907 Z"/>
  <path style="fill: rgb(226, 226, 226);" d="M 64.344 345.729 C 54.651 323.388 49.347 299.389 48.722 275.043 L 68.641 274.963 C 70.439 295.141 73.207 310.381 80.25 329.448 C 77.887 331.945 75.401 334.348 72.978 336.791 C 70.053 339.721 67.215 342.747 64.344 345.729 Z"/>
  <path d="M 200.107 320.554 C 209.953 310.451 219.236 299.556 228.706 289.084 C 233.043 284.291 237.265 279.017 242.187 274.818 C 245.517 277.007 252.761 286.539 255.9 290.038 L 291.143 329.966 C 297.922 337.678 304.929 345.15 311.461 353.078 C 312.072 376.732 311.285 400.496 311.19 424.158 C 295.716 408.853 281.377 392.099 266.979 375.783 L 232.978 337.599 C 222.116 350.329 210.525 362.374 198.946 374.443 C 193.14 368.893 188.148 362.403 182.922 356.315 C 176.626 349.117 170.232 342.006 163.743 334.981 C 152.949 344.325 143.344 355.875 133.299 366.065 L 82.296 418.045 C 65.081 417.904 47.785 417.611 30.575 418.172 C 45.449 401.854 61.662 386.733 77.11 370.975 L 165.576 279.706 C 169.639 285.036 174.206 290 178.532 295.118 C 185.716 303.619 192.78 312.173 200.107 320.554 Z"/>
  <path d="M 129.678 389.21 C 135.437 381.411 143.343 374.327 150.127 367.415 C 151.608 369.419 150.713 412.661 150.693 418.747 L 129.954 418.802 C 128.71 416.996 129.631 393.098 129.678 389.21 Z"/>
  <path d="M 182.099 419.093 L 182.167 375.697 C 187.182 380.782 191.879 386.251 196.663 391.56 C 198.637 390.281 200.528 388.834 202.443 387.466 L 202.432 416.144 C 202.479 417.252 202.513 417.975 202.063 418.998 C 195.69 419.831 188.555 419.157 182.099 419.093 Z"/>
</svg>